<svg width="20" height="14" viewBox="0 0 20 14" fill="none" xmlns="http://www.w3.org/2000/svg">
<path fill-rule="evenodd" clip-rule="evenodd" d="M13.1956 13.4248C13.5826 13.8565 14.2158 13.8627 14.6098 13.4388L19.7007 7.96176C19.8922 7.7558 20 7.47419 20 7.18025C20 6.88631 19.8922 6.6047 19.7007 6.39873L14.6098 0.921699C14.2158 0.497787 13.5826 0.504035 13.1956 0.935655C12.8087 1.36727 12.8144 2.06082 13.2084 2.48473L16.5547 6.08484L1 6.08484C0.447715 6.08484 0 6.57527 0 7.18025C0 7.78522 0.447715 8.27565 1 8.27565L16.5547 8.27565L13.2084 11.8758C12.8144 12.2997 12.8087 12.9932 13.1956 13.4248Z" fill="white"/>
</svg>
